<?xml version="1.0" encoding="UTF-8" standalone="no"?>
<svg
   xmlns:dc="http://purl.org/dc/elements/1.1/"
   xmlns:cc="http://creativecommons.org/ns#"
   xmlns:rdf="http://www.w3.org/1999/02/22-rdf-syntax-ns#"
   xmlns:svg="http://www.w3.org/2000/svg"
   xmlns="http://www.w3.org/2000/svg"
   xmlns:sodipodi="http://sodipodi.sourceforge.net/DTD/sodipodi-0.dtd"
   xmlns:inkscape="http://www.inkscape.org/namespaces/inkscape"
   id="Layer_1"
   data-name="Layer 1"
   viewBox="0 0 658.58 658.58"
   version="1.1"
   sodipodi:docname="horseshoe-01.svg"
   inkscape:version="0.92.1 r15371"
   width="658.58002"
   height="658.58002">
  <metadata
     id="metadata11">
    <rdf:RDF>
      <cc:Work
         rdf:about="">
        <dc:format>image/svg+xml</dc:format>
        <dc:type
           rdf:resource="http://purl.org/dc/dcmitype/StillImage" />
        <dc:title>horseshoe</dc:title>
      </cc:Work>
    </rdf:RDF>
  </metadata>
  <defs
     id="defs9" />
  <sodipodi:namedview
     pagecolor="#ffffff"
     bordercolor="#666666"
     borderopacity="1"
     objecttolerance="10"
     gridtolerance="10"
     guidetolerance="10"
     inkscape:pageopacity="0"
     inkscape:pageshadow="2"
     inkscape:window-width="1920"
     inkscape:window-height="1017"
     id="namedview7"
     showgrid="false"
     inkscape:zoom="0.83586965"
     inkscape:cx="213.20447"
     inkscape:cy="288.64486"
     inkscape:window-x="-8"
     inkscape:window-y="-8"
     inkscape:window-maximized="1"
     inkscape:current-layer="Layer_1" />
  <title
     id="title2">horseshoe</title>
  <path
     d="m 576.6626,571.53197 v 76.37 c -30.91,0 -61.28,1.22 -91.49,-0.42 -20.68,-1.12 -40.67,-30.53 -42.09,-56.7 -1.24,-22.87 7.62,-42.72 17.79,-62.18 16.28,-31.15 35,-61.23 48.79,-93.44 19.07,-44.55 29.5,-91.19 23.64,-140.69 -9.54,-80.62 -68.9,-149.21 -148.36,-166.44 -87.13,-18.88999 -158.86,8.2 -215.43,76.55 -33.73,40.81 -45.12,87.87 -40.55,140.06 5.21,59.46 31.44,110.27 62.45,159.56 15.12,24 30.32,48.28 42.28,73.92 9.22,19.78 4.71,40.45 -11.54,56.2 -5.74,5.56 -14.26,11.22 -21.71,11.51 -32.49,1.25 -65.06,0.54 -98.86,0.54 v -74.76 c 9.65,0 17.65,0.18 25.64,0 12.52,-0.34 16.26,-6.22 9.71,-17 -6.7,-11 -14.87,-21.18 -22.33,-31.76 -27.780003,-39.4 -56.460007,-78.73 -69.600007,-125.78 -26.940004,-96.46 -14.65,-186.25 50.390004,-265.69 C 126.5326,93.381975 162.5526,61.561977 207.8626,41.101977 c 33.59,-15.170003 69.12,-22.000003 105.45,-24.490003 61.17,-4.16 119.83,5.45 172.87,38.000003 49.93,30.64 92.68,68.780003 120.15,121.839993 19.28,37.22 23.14,77.45 24.8,118.44 2.58999,63.91 -16.24,122.07 -45.93,177.36 -14,26.07 -29.36,51.41 -44.38,76.92 -8.33,14.13 -5.09,21.17 11.28,22.27 7.68,0.51 15.49,0.09 24.56,0.09 z M 333.8526,50.191977 a 266.11,266.11 0 0 0 -119.76,28.26 130.54,130.54 0 0 0 -26.4,17.799998 c -6.16,5.330005 -8.55,13.440005 -3,21.000005 5.55,7.56 12.78,5.52 19.84,1.87 2.29,-1.19 4.76,-2 7.12,-3.1 56.24,-25.400005 114.9,-33.870003 175.42,-21.490005 25.13,5.14 49.29,15.070005 73.86,22.900005 6.28,2 13.86,6.32 18,-0.83 3.09,-5.28 3.76,-13.37 2.33,-19.460005 -1.13,-4.8 -6.32,-9.999998 -11,-12.399998 -41.8,-21.09 -86.17,-32.74 -136.41,-34.55 z m 201.58,94.549993 c -6.07,2.48 -16,12.87 -18,16.33 -2.31,3.84 -0.22,12.05 2.47,16.85 8.33,14.83 18,28.92 27,43.37 6,9.68 13.07,11.69 22.91,6.26 11.28,-6.22 15,-13.74 9.5,-23.25 -6.2,-10.72 -12.72,-21.25 -19.39,-31.67 -5.61,-8.76 -10.33,-18.6 -17.79,-25.77 a 10.74,10.74 0 0 0 -3.41,-2.5 4.54,4.54 0 0 0 -3.29,0.38 z m -448.170003,65.13 c -0.23,8.59 6.71,17.17 15.680003,19.53 7.32,1.92 13.39,1 17.91,-6.56 9.66,-16.17 20.17,-31.83 30.1,-47.85 5.35,-8.61 2.83,-16.54 -6.84,-23.54 -8.8,-6.29 -16.51,-5.51 -22.84,3.51 -10.76,15.33 -20.71,31.21 -31.320003,46.64 a 15.06,15.06 0 0 0 -2.69,8.27 z m -22.290004,100.8 c -0.16,8.79 0.08,17.62 0.78,26.63 0.88,11.25 9.520004,13.11 18.500004,12.69 8.42,-0.4 16.330003,-2.31 16.790003,-13.42 0.79,-19.18 2,-38.34 2.73,-57.51 0.42,-10.85 -3.54,-14.76 -15.110003,-15.87 -13.23,-1.27 -20.060004,2.71 -21.290004,13.29 -1.34,11.53 -2.2,22.82 -2.4,34.19 z m 535.940007,-5.85 a 266.42,266.42 0 0 0 -1.38,-29.25 c -1,-9.5 -9,-14.86 -20.19,-13.84 -11.19,1.02 -16.56,6.5 -16.09,16.72 q 1.33,28.22 2.77,56.44 c 0.49,9.56 6,14.92 16.81,14.74 8.45,-0.14 16.3,-2.36 16.93,-13.31 0.61,-10.6 1.11,-21.06 1.14,-31.51 z m -527.770007,92.56 a 15.76,15.76 0 0 0 0.2,2.48 c 1.640004,10.44 8.000004,21.87 12.880004,31.13 5.07,9.55 11,19.15 16.000003,28.43 4.31,8 13.05,6 19.77,2.31 6.72,-3.69 12.36,-8.32 8.47,-17.73 -7.68,-18.44 -15.14,-36.95 -22.22,-55.55 -3.59,-9.45 -10.570003,-9.34 -18.090003,-7.24 -8.31,2.24 -17.000004,7.03 -17.020004,16.16 z m 490.300007,-17.56 c -4.42,1.28 -8.19,4.54 -10.16,10.07 -6.56,18.38 -11.62,37.29 -17.43,56 -3.15,10.11 3.34,14.48 10.76,17.56 7.76,3.23 15.57,3.38 19.45,-6.15 7,-17.06 14.1,-34.08 20.21,-51.45 2.56,-7.29 2.25,-15.44 -3.85,-20.84 -5.59,-4.99 -12.9,-6.96 -18.98,-5.19 z"
     id="path4"
     inkscape:connector-curvature="0" />
</svg>
